# xmcd
#
# Track frame offsets: 
#        150
#        19169
#        34576
#        50872
#        66065
#        82300
#        95918
#        118601
#        134308
#        153339
#        167794
#
# Disc length: 2412 seconds
#
# Revision: 0
# Processed by: cddbd v1.5.2PL0 Copyright (c) Steve Scherf et al.
# Submitted via: ExactAudioCopy v1.0b1
#
DISCID=99096a0b
DTITLE=Delta Moon - You'll Never Get To Heaven On A Hellbound Train
DYEAR=2009
DGENRE=Blues Rock
TTITLE0=Hellbound Train
TTITLE1=Room 429
TTITLE2=Lonely
TTITLE3=Get Gone
TTITLE4=True Love Lies
TTITLE5=You Got To Move
TTITLE6=Stuck In Carolina
TTITLE7=Ain't No Train
TTITLE8=Ghost In My Guitar
TTITLE9=Take The Back Road Home
TTITLE10=Plantation Song
EXTD=
EXTT0=
EXTT1=
EXTT2=
EXTT3=
EXTT4=
EXTT5=
EXTT6=
EXTT7=
EXTT8=
EXTT9=
EXTT10=
PLAYORDER=
